<svg xmlns="http://www.w3.org/2000/svg" xmlns:xlink="http://www.w3.org/1999/xlink" width="1587" zoomAndPan="magnify" viewBox="0 0 1190.25 1683.749945" height="2245" preserveAspectRatio="xMidYMid meet" version="1.0"><defs><clipPath id="d122387cda"><path d="M 764 3 L 1189.5 3 L 1189.5 947 L 764 947 Z M 764 3 " clip-rule="nonzero"/></clipPath></defs><path fill="#474f7b" d="M 243.019531 3.136719 C 243.019531 3.136719 74.640625 276.359375 279.648438 309.421875 C 458.957031 338.34375 480.160156 130.117188 622.832031 257.367188 C 765.503906 384.617188 780.925781 49.675781 649.828125 3.136719 Z M 243.019531 3.136719 " fill-opacity="1" fill-rule="nonzero"/><g clip-path="url(#d122387cda)"><path fill="#474f7b" d="M 886.96875 3.136719 C 886.96875 3.136719 611.265625 203.386719 886.96875 384.617188 C 986.207031 449.851562 940.734375 494.695312 935.167969 596.699219 C 925.277344 778.070312 942.882812 993.863281 1189.664062 937.953125 L 1189.664062 3.136719 Z M 886.96875 3.136719 " fill-opacity="1" fill-rule="nonzero"/></g><path fill="#1d3020" d="M 614.582031 695.691406 C 612.53125 695.691406 610.773438 694.140625 610.5625 692.0625 C 610.335938 689.839844 611.949219 687.851562 614.171875 687.625 C 680.414062 680.820312 733.628906 649.132812 781.636719 587.898438 C 826.394531 530.8125 864.378906 452 908.359375 360.75 C 927.0625 321.949219 946.402344 281.824219 968.09375 239.417969 C 996.886719 183.128906 1026.050781 135.722656 1054.761719 98.519531 C 1077.839844 68.625 1100.714844 45.179688 1122.746094 28.832031 C 1161.0625 0.410156 1183.898438 3.132812 1184.851562 3.265625 C 1187.066406 3.566406 1188.617188 5.605469 1188.3125 7.816406 C 1188.011719 10.019531 1185.992188 11.5625 1183.792969 11.28125 C 1183.355469 11.238281 1162.152344 9.253906 1126.277344 36.292969 C 1092.726562 61.582031 1039.292969 117.988281 975.296875 243.101562 C 953.644531 285.425781 934.328125 325.5 915.644531 364.261719 C 827.175781 547.820312 763.253906 680.445312 614.996094 695.667969 C 614.859375 695.683594 614.71875 695.691406 614.582031 695.691406 Z M 614.582031 695.691406 " fill-opacity="1" fill-rule="nonzero"/><path fill="#3d7746" d="M 1136.640625 67.460938 C 1136.640625 67.460938 1115.136719 128.492188 1121.214844 184.105469 C 1127.960938 245.804688 1117.234375 280.507812 1117.234375 280.507812 C 1117.234375 280.507812 1156.992188 185.257812 1153.027344 142.65625 C 1149.175781 101.199219 1136.640625 67.460938 1136.640625 67.460938 Z M 1136.640625 67.460938 " fill-opacity="1" fill-rule="nonzero"/><path fill="#3d7746" d="M 1056.480469 163.484375 C 1056.480469 163.484375 1034.972656 224.515625 1041.054688 280.128906 C 1047.800781 341.828125 1037.074219 376.53125 1037.074219 376.53125 C 1037.074219 376.53125 1076.828125 281.28125 1072.863281 238.679688 C 1069.015625 197.222656 1056.480469 163.484375 1056.480469 163.484375 Z M 1056.480469 163.484375 " fill-opacity="1" fill-rule="nonzero"/><path fill="#3d7746" d="M 984.367188 306.53125 C 984.367188 306.53125 962.859375 367.558594 968.941406 423.175781 C 975.6875 484.875 964.960938 519.574219 964.960938 519.574219 C 964.960938 519.574219 1004.714844 424.328125 1000.75 381.726562 C 996.898438 340.273438 984.367188 306.53125 984.367188 306.53125 Z M 984.367188 306.53125 " fill-opacity="1" fill-rule="nonzero"/><path fill="#3d7746" d="M 918.851562 429.652344 C 918.851562 429.652344 897.34375 490.683594 903.425781 546.296875 C 910.171875 607.996094 899.445312 642.699219 899.445312 642.699219 C 899.445312 642.699219 939.199219 547.449219 935.234375 504.847656 C 931.378906 463.390625 918.851562 429.652344 918.851562 429.652344 Z M 918.851562 429.652344 " fill-opacity="1" fill-rule="nonzero"/><path fill="#3d7746" d="M 848.355469 561.027344 C 848.355469 561.027344 826.847656 622.054688 832.929688 677.671875 C 839.675781 739.371094 828.949219 774.070312 828.949219 774.070312 C 828.949219 774.070312 868.703125 678.820312 864.738281 636.21875 C 860.890625 594.769531 848.355469 561.027344 848.355469 561.027344 Z M 848.355469 561.027344 " fill-opacity="1" fill-rule="nonzero"/><path fill="#3d7746" d="M 777.3125 667.546875 C 777.3125 667.546875 755.808594 728.578125 761.886719 784.195312 C 768.632812 845.890625 757.90625 880.59375 757.90625 880.59375 C 757.90625 880.59375 797.664062 785.34375 793.699219 742.742188 C 789.847656 701.292969 777.3125 667.546875 777.3125 667.546875 Z M 777.3125 667.546875 " fill-opacity="1" fill-rule="nonzero"/><path fill="#3d7746" d="M 728.839844 687.511719 C 728.839844 687.511719 683.234375 733.421875 664.882812 786.269531 C 644.515625 844.894531 619.945312 871.648438 619.945312 871.648438 C 619.945312 871.648438 696.703125 802.652344 711.394531 762.464844 C 725.691406 723.363281 728.839844 687.511719 728.839844 687.511719 Z M 728.839844 687.511719 " fill-opacity="1" fill-rule="nonzero"/><path fill="#3d7746" d="M 636.609375 709.371094 C 636.609375 709.371094 578.859375 738.566406 544.777344 782.929688 C 506.972656 832.148438 475.21875 849.785156 475.21875 849.785156 C 475.21875 849.785156 569.816406 808.507812 596.425781 775 C 622.316406 742.402344 636.609375 709.371094 636.609375 709.371094 Z M 636.609375 709.371094 " fill-opacity="1" fill-rule="nonzero"/><path fill="#3d7746" d="M 674.390625 649.492188 C 674.390625 649.492188 611.25 635.324219 556.742188 647.914062 C 496.269531 661.878906 460.542969 655.3125 460.542969 655.3125 C 460.542969 655.3125 559.808594 683.574219 601.652344 674.621094 C 642.359375 665.910156 674.390625 649.492188 674.390625 649.492188 Z M 674.390625 649.492188 " fill-opacity="1" fill-rule="nonzero"/><path fill="#3d7746" d="M 782.980469 539.316406 C 782.980469 539.316406 718.515625 544.957031 670.386719 573.484375 C 617 605.125 580.964844 609.703125 580.964844 609.703125 C 580.964844 609.703125 684.128906 606.535156 721.28125 585.320312 C 757.433594 564.671875 782.980469 539.316406 782.980469 539.316406 Z M 782.980469 539.316406 " fill-opacity="1" fill-rule="nonzero"/><path fill="#3d7746" d="M 861.292969 420.925781 C 861.292969 420.925781 797.75 433.15625 752.804688 466.472656 C 702.949219 503.433594 667.570312 511.683594 667.570312 511.683594 C 667.570312 511.683594 769.863281 497.9375 804.644531 473.023438 C 838.488281 448.769531 861.292969 420.925781 861.292969 420.925781 Z M 861.292969 420.925781 " fill-opacity="1" fill-rule="nonzero"/><path fill="#3d7746" d="M 910.539062 321.195312 C 910.539062 321.195312 846.996094 333.425781 802.050781 366.742188 C 752.195312 403.703125 716.816406 411.953125 716.816406 411.953125 C 716.816406 411.953125 819.109375 398.207031 853.890625 373.289062 C 887.730469 349.039062 910.539062 321.195312 910.539062 321.195312 Z M 910.539062 321.195312 " fill-opacity="1" fill-rule="nonzero"/><path fill="#3d7746" d="M 943.847656 235.125 C 943.847656 235.125 880.308594 247.359375 835.359375 280.671875 C 785.503906 317.632812 750.125 325.886719 750.125 325.886719 C 750.125 325.886719 852.417969 312.140625 887.199219 287.222656 C 921.042969 262.972656 943.847656 235.125 943.847656 235.125 Z M 943.847656 235.125 " fill-opacity="1" fill-rule="nonzero"/><path fill="#3d7746" d="M 1007.398438 128.605469 C 1007.398438 128.605469 943.855469 140.835938 898.910156 174.152344 C 849.054688 211.113281 813.675781 219.363281 813.675781 219.363281 C 813.675781 219.363281 915.96875 205.617188 950.75 180.703125 C 984.589844 156.449219 1007.398438 128.605469 1007.398438 128.605469 Z M 1007.398438 128.605469 " fill-opacity="1" fill-rule="nonzero"/><path fill="#3d7746" d="M 1085.378906 33.742188 C 1085.378906 33.742188 1020.839844 38.445312 972.300781 66.265625 C 918.457031 97.128906 882.359375 101.179688 882.359375 101.179688 C 882.359375 101.179688 985.558594 99.515625 1023.019531 78.839844 C 1059.46875 58.726562 1085.378906 33.742188 1085.378906 33.742188 Z M 1085.378906 33.742188 " fill-opacity="1" fill-rule="nonzero"/><path fill="#1d3020" d="M 508.4375 404.273438 C 507.519531 404.273438 506.597656 403.960938 505.839844 403.324219 C 455.171875 360.832031 427.671875 309.769531 424.117188 251.574219 C 420.0625 185.257812 448.371094 121.5625 472.835938 79.804688 C 499.257812 34.707031 527.054688 4.71875 527.332031 4.421875 C 528.757812 2.898438 531.105469 2.707031 532.761719 3.976562 C 534.414062 5.25 534.828125 7.574219 533.710938 9.339844 C 533.46875 9.726562 509.28125 48.519531 497.320312 106.980469 C 486.316406 160.761719 483.707031 242.742188 533.777344 327.875 C 534.90625 329.800781 534.265625 332.28125 532.34375 333.410156 C 530.414062 334.542969 527.9375 333.898438 526.804688 331.972656 C 504.09375 293.359375 489.957031 252.136719 484.792969 209.453125 C 480.660156 175.3125 482.230469 140.1875 489.457031 105.046875 C 495.039062 77.878906 503.058594 55.089844 510.246094 38.15625 C 501.132812 50.328125 490.3125 65.957031 479.714844 84.066406 C 455.863281 124.820312 428.257812 186.886719 432.195312 251.117188 C 435.621094 306.996094 462.148438 356.121094 511.039062 397.125 C 512.753906 398.5625 512.972656 401.113281 511.539062 402.824219 C 510.738281 403.78125 509.589844 404.273438 508.4375 404.273438 Z M 508.4375 404.273438 " fill-opacity="1" fill-rule="nonzero"/><path fill="#1d3020" d="M 405.929688 437.742188 C 403.890625 437.742188 402.136719 436.203125 401.910156 434.132812 C 395.601562 375.722656 398.257812 316.792969 409.808594 258.988281 C 419.046875 212.753906 433.957031 167.132812 454.136719 123.386719 C 467.332031 94.785156 481.113281 70.683594 493.113281 51.824219 C 384.5625 175.144531 279.09375 370.328125 277.914062 372.527344 C 276.851562 374.496094 274.40625 375.230469 272.433594 374.175781 C 270.46875 373.121094 269.730469 370.664062 270.789062 368.699219 C 271.121094 368.078125 304.671875 305.816406 352.816406 230.203125 C 397.300781 160.335938 463.71875 64.417969 527.511719 4.238281 C 529.085938 2.757812 531.546875 2.769531 533.097656 4.273438 C 534.652344 5.773438 534.75 8.230469 533.320312 9.855469 C 532.945312 10.285156 495.230469 53.511719 461.355469 127.046875 C 430.132812 194.816406 395.871094 302.953125 409.949219 433.261719 C 410.191406 435.480469 408.585938 437.480469 406.367188 437.71875 C 406.222656 437.734375 406.070312 437.742188 405.929688 437.742188 Z M 405.929688 437.742188 " fill-opacity="1" fill-rule="nonzero"/><path fill="#1d3020" d="M 86.269531 270.488281 C 62.175781 270.488281 48.785156 267.046875 47.726562 266.765625 C 45.570312 266.1875 44.289062 263.972656 44.863281 261.8125 C 45.441406 259.65625 47.65625 258.375 49.8125 258.949219 C 50.304688 259.082031 100.101562 271.722656 183.386719 246.824219 C 253.109375 225.984375 359.832031 174.242188 486.75 47 C 468.789062 59.890625 446.074219 74.847656 419.464844 89.640625 C 378.285156 112.535156 335.914062 130.589844 293.542969 143.308594 C 240.515625 159.222656 187.335938 166.78125 135.453125 165.761719 C 133.21875 165.714844 131.445312 163.875 131.488281 161.636719 C 131.535156 159.429688 133.332031 157.671875 135.53125 157.671875 C 135.558594 157.671875 135.585938 157.671875 135.613281 157.671875 C 251.253906 159.929688 351.660156 118.082031 415.539062 82.570312 C 484.789062 44.070312 527.101562 4.621094 527.519531 4.230469 C 529.105469 2.742188 531.582031 2.773438 533.128906 4.296875 C 534.679688 5.820312 534.746094 8.296875 533.28125 9.90625 C 468.738281 80.652344 403.148438 138.183594 338.324219 180.898438 C 286.355469 215.144531 234.753906 240.007812 184.945312 254.800781 C 142.996094 267.261719 109.613281 270.488281 86.269531 270.488281 Z M 86.269531 270.488281 " fill-opacity="1" fill-rule="nonzero"/><path fill="#1d3020" d="M 187.585938 360.894531 C 187.125 360.894531 186.65625 360.820312 186.199219 360.652344 C 184.101562 359.882812 183.019531 357.5625 183.785156 355.46875 C 183.894531 355.160156 195.238281 324.328125 216.871094 288.351562 C 236.914062 255.023438 270.175781 210.257812 314.820312 186.289062 C 316.789062 185.234375 319.242188 185.972656 320.296875 187.941406 C 321.355469 189.90625 320.617188 192.363281 318.644531 193.417969 C 236.101562 237.734375 191.824219 357.035156 191.386719 358.238281 C 190.789062 359.875 189.238281 360.894531 187.585938 360.894531 Z M 187.585938 360.894531 " fill-opacity="1" fill-rule="nonzero"/><path fill="#aed9b3" d="M 144.851562 149.882812 C 144.851562 150.863281 144.804688 151.839844 144.707031 152.8125 C 144.609375 153.785156 144.46875 154.753906 144.277344 155.714844 C 144.085938 156.671875 143.847656 157.621094 143.5625 158.558594 C 143.28125 159.496094 142.949219 160.414062 142.578125 161.320312 C 142.203125 162.222656 141.785156 163.109375 141.324219 163.96875 C 140.859375 164.832031 140.359375 165.671875 139.816406 166.484375 C 139.269531 167.300781 138.6875 168.085938 138.066406 168.839844 C 137.445312 169.597656 136.789062 170.324219 136.097656 171.015625 C 135.40625 171.707031 134.683594 172.363281 133.925781 172.984375 C 133.167969 173.605469 132.382812 174.1875 131.570312 174.730469 C 130.757812 175.273438 129.917969 175.777344 129.054688 176.238281 C 128.191406 176.699219 127.308594 177.117188 126.402344 177.492188 C 125.5 177.867188 124.578125 178.195312 123.640625 178.480469 C 122.707031 178.765625 121.757812 179.003906 120.796875 179.191406 C 119.835938 179.382812 118.871094 179.527344 117.894531 179.625 C 116.921875 179.71875 115.945312 179.765625 114.96875 179.765625 C 113.988281 179.765625 113.011719 179.71875 112.039062 179.625 C 111.0625 179.527344 110.097656 179.382812 109.136719 179.191406 C 108.175781 179.003906 107.230469 178.765625 106.292969 178.480469 C 105.355469 178.195312 104.433594 177.867188 103.53125 177.492188 C 102.625 177.117188 101.742188 176.699219 100.878906 176.238281 C 100.015625 175.777344 99.179688 175.273438 98.363281 174.730469 C 97.550781 174.1875 96.765625 173.605469 96.007812 172.984375 C 95.253906 172.363281 94.527344 171.707031 93.835938 171.015625 C 93.144531 170.324219 92.488281 169.597656 91.867188 168.839844 C 91.246094 168.085938 90.664062 167.300781 90.117188 166.484375 C 89.574219 165.671875 89.074219 164.832031 88.613281 163.96875 C 88.148438 163.109375 87.730469 162.222656 87.359375 161.320312 C 86.984375 160.414062 86.652344 159.496094 86.371094 158.558594 C 86.085938 157.621094 85.847656 156.671875 85.65625 155.714844 C 85.464844 154.753906 85.324219 153.785156 85.226562 152.8125 C 85.128906 151.839844 85.082031 150.863281 85.082031 149.882812 C 85.082031 148.90625 85.128906 147.929688 85.226562 146.953125 C 85.324219 145.980469 85.464844 145.011719 85.65625 144.054688 C 85.847656 143.09375 86.085938 142.144531 86.371094 141.207031 C 86.652344 140.273438 86.984375 139.351562 87.359375 138.445312 C 87.730469 137.542969 88.148438 136.660156 88.613281 135.796875 C 89.074219 134.933594 89.574219 134.09375 90.117188 133.28125 C 90.664062 132.464844 91.246094 131.679688 91.867188 130.925781 C 92.488281 130.167969 93.144531 129.445312 93.835938 128.753906 C 94.527344 128.058594 95.253906 127.402344 96.007812 126.78125 C 96.765625 126.160156 97.550781 125.578125 98.363281 125.035156 C 99.179688 124.492188 100.015625 123.988281 100.878906 123.527344 C 101.742188 123.066406 102.625 122.648438 103.53125 122.273438 C 104.433594 121.898438 105.355469 121.570312 106.292969 121.285156 C 107.230469 121 108.175781 120.765625 109.136719 120.574219 C 110.097656 120.382812 111.0625 120.238281 112.039062 120.144531 C 113.011719 120.046875 113.988281 120 114.96875 120 C 115.945312 120 116.921875 120.046875 117.894531 120.144531 C 118.871094 120.238281 119.835938 120.382812 120.796875 120.574219 C 121.757812 120.765625 122.707031 121 123.640625 121.285156 C 124.578125 121.570312 125.5 121.898438 126.402344 122.273438 C 127.308594 122.648438 128.191406 123.066406 129.054688 123.527344 C 129.917969 123.988281 130.757812 124.492188 131.570312 125.035156 C 132.382812 125.578125 133.167969 126.160156 133.925781 126.78125 C 134.683594 127.402344 135.40625 128.058594 136.097656 128.753906 C 136.789062 129.445312 137.445312 130.167969 138.066406 130.925781 C 138.6875 131.679688 139.269531 132.464844 139.816406 133.28125 C 140.359375 134.09375 140.859375 134.933594 141.324219 135.796875 C 141.785156 136.660156 142.203125 137.542969 142.578125 138.445312 C 142.949219 139.351562 143.28125 140.273438 143.5625 141.207031 C 143.847656 142.144531 144.085938 143.09375 144.277344 144.054688 C 144.46875 145.011719 144.609375 145.980469 144.707031 146.953125 C 144.804688 147.929688 144.851562 148.90625 144.851562 149.882812 Z M 144.851562 149.882812 " fill-opacity="1" fill-rule="nonzero"/><path fill="#aed9b3" d="M 59.859375 257.050781 C 59.859375 258.027344 59.8125 259.003906 59.714844 259.980469 C 59.621094 260.953125 59.476562 261.917969 59.285156 262.878906 C 59.09375 263.839844 58.859375 264.789062 58.574219 265.722656 C 58.289062 266.660156 57.960938 267.582031 57.585938 268.484375 C 57.210938 269.390625 56.792969 270.273438 56.332031 271.136719 C 55.871094 272 55.367188 272.839844 54.824219 273.652344 C 54.28125 274.464844 53.699219 275.25 53.078125 276.007812 C 52.457031 276.765625 51.800781 277.488281 51.109375 278.179688 C 50.414062 278.871094 49.691406 279.53125 48.933594 280.148438 C 48.179688 280.769531 47.394531 281.355469 46.578125 281.898438 C 45.765625 282.441406 44.925781 282.945312 44.0625 283.40625 C 43.199219 283.867188 42.316406 284.285156 41.414062 284.660156 C 40.507812 285.035156 39.585938 285.363281 38.652344 285.648438 C 37.714844 285.929688 36.765625 286.167969 35.804688 286.359375 C 34.847656 286.550781 33.878906 286.695312 32.90625 286.789062 C 31.929688 286.886719 30.953125 286.933594 29.976562 286.933594 C 28.996094 286.933594 28.019531 286.886719 27.046875 286.789062 C 26.074219 286.695312 25.105469 286.550781 24.144531 286.359375 C 23.1875 286.167969 22.238281 285.929688 21.300781 285.648438 C 20.363281 285.363281 19.445312 285.035156 18.539062 284.660156 C 17.636719 284.285156 16.753906 283.867188 15.890625 283.40625 C 15.027344 282.945312 14.1875 282.441406 13.375 281.898438 C 12.558594 281.355469 11.773438 280.769531 11.019531 280.148438 C 10.261719 279.53125 9.535156 278.871094 8.84375 278.179688 C 8.152344 277.488281 7.496094 276.765625 6.875 276.007812 C 6.253906 275.25 5.671875 274.464844 5.128906 273.652344 C 4.585938 272.839844 4.082031 272 3.621094 271.136719 C 3.160156 270.273438 2.742188 269.390625 2.367188 268.484375 C 1.992188 267.582031 1.664062 266.660156 1.378906 265.722656 C 1.09375 264.789062 0.855469 263.839844 0.667969 262.878906 C 0.476562 261.917969 0.332031 260.953125 0.234375 259.980469 C 0.140625 259.003906 0.09375 258.027344 0.09375 257.050781 C 0.09375 256.070312 0.140625 255.09375 0.234375 254.121094 C 0.332031 253.144531 0.476562 252.179688 0.667969 251.21875 C 0.855469 250.257812 1.09375 249.3125 1.378906 248.375 C 1.664062 247.4375 1.992188 246.519531 2.367188 245.613281 C 2.742188 244.710938 3.160156 243.824219 3.621094 242.960938 C 4.082031 242.097656 4.585938 241.261719 5.128906 240.445312 C 5.671875 239.632812 6.253906 238.847656 6.875 238.089844 C 7.496094 237.335938 8.152344 236.609375 8.84375 235.917969 C 9.535156 235.226562 10.261719 234.570312 11.019531 233.949219 C 11.773438 233.328125 12.558594 232.746094 13.375 232.203125 C 14.1875 231.65625 15.027344 231.15625 15.890625 230.695312 C 16.753906 230.234375 17.636719 229.816406 18.539062 229.441406 C 19.445312 229.066406 20.363281 228.738281 21.300781 228.453125 C 22.238281 228.167969 23.1875 227.929688 24.144531 227.738281 C 25.105469 227.546875 26.074219 227.40625 27.046875 227.308594 C 28.019531 227.214844 28.996094 227.164062 29.976562 227.164062 C 30.953125 227.164062 31.929688 227.214844 32.90625 227.308594 C 33.878906 227.40625 34.847656 227.546875 35.804688 227.738281 C 36.765625 227.929688 37.714844 228.167969 38.652344 228.453125 C 39.585938 228.738281 40.507812 229.066406 41.414062 229.441406 C 42.316406 229.816406 43.199219 230.234375 44.0625 230.695312 C 44.925781 231.15625 45.765625 231.65625 46.578125 232.203125 C 47.394531 232.746094 48.179688 233.328125 48.933594 233.949219 C 49.691406 234.570312 50.414062 235.226562 51.109375 235.917969 C 51.800781 236.609375 52.457031 237.335938 53.078125 238.089844 C 53.699219 238.847656 54.28125 239.632812 54.824219 240.445312 C 55.367188 241.261719 55.871094 242.097656 56.332031 242.960938 C 56.792969 243.824219 57.210938 244.710938 57.585938 245.613281 C 57.960938 246.519531 58.289062 247.4375 58.574219 248.375 C 58.859375 249.3125 59.09375 250.257812 59.285156 251.21875 C 59.476562 252.179688 59.621094 253.144531 59.714844 254.121094 C 59.8125 255.09375 59.859375 256.070312 59.859375 257.050781 Z M 59.859375 257.050781 " fill-opacity="1" fill-rule="nonzero"/><path fill="#aed9b3" d="M 207.847656 363.730469 C 207.847656 364.710938 207.796875 365.6875 207.703125 366.660156 C 207.605469 367.632812 207.460938 368.601562 207.273438 369.5625 C 207.082031 370.519531 206.84375 371.46875 206.558594 372.40625 C 206.273438 373.34375 205.945312 374.261719 205.570312 375.167969 C 205.195312 376.070312 204.777344 376.953125 204.316406 377.816406 C 203.855469 378.679688 203.351562 379.519531 202.808594 380.332031 C 202.265625 381.148438 201.683594 381.933594 201.0625 382.6875 C 200.441406 383.445312 199.785156 384.167969 199.09375 384.863281 C 198.402344 385.554688 197.675781 386.210938 196.917969 386.832031 C 196.164062 387.453125 195.378906 388.035156 194.5625 388.578125 C 193.75 389.121094 192.910156 389.625 192.046875 390.085938 C 191.1875 390.546875 190.300781 390.964844 189.398438 391.339844 C 188.492188 391.714844 187.574219 392.042969 186.636719 392.328125 C 185.699219 392.613281 184.75 392.847656 183.792969 393.039062 C 182.832031 393.230469 181.863281 393.375 180.890625 393.472656 C 179.917969 393.566406 178.941406 393.613281 177.960938 393.613281 C 176.984375 393.613281 176.007812 393.566406 175.03125 393.472656 C 174.058594 393.375 173.089844 393.230469 172.132812 393.039062 C 171.171875 392.847656 170.222656 392.613281 169.285156 392.328125 C 168.351562 392.042969 167.429688 391.714844 166.523438 391.339844 C 165.621094 390.964844 164.738281 390.546875 163.875 390.085938 C 163.011719 389.625 162.171875 389.121094 161.359375 388.578125 C 160.546875 388.035156 159.757812 387.453125 159.003906 386.832031 C 158.246094 386.210938 157.523438 385.554688 156.832031 384.863281 C 156.136719 384.167969 155.480469 383.445312 154.859375 382.6875 C 154.238281 381.933594 153.65625 381.148438 153.113281 380.332031 C 152.570312 379.519531 152.066406 378.679688 151.605469 377.816406 C 151.144531 376.953125 150.726562 376.070312 150.351562 375.167969 C 149.976562 374.261719 149.648438 373.34375 149.363281 372.40625 C 149.078125 371.46875 148.84375 370.519531 148.652344 369.5625 C 148.460938 368.601562 148.316406 367.632812 148.222656 366.660156 C 148.125 365.6875 148.078125 364.710938 148.078125 363.730469 C 148.078125 362.75 148.125 361.777344 148.222656 360.800781 C 148.316406 359.828125 148.460938 358.859375 148.652344 357.902344 C 148.84375 356.941406 149.078125 355.992188 149.363281 355.054688 C 149.648438 354.117188 149.976562 353.199219 150.351562 352.292969 C 150.726562 351.390625 151.144531 350.507812 151.605469 349.644531 C 152.066406 348.78125 152.570312 347.941406 153.113281 347.128906 C 153.65625 346.3125 154.238281 345.527344 154.859375 344.773438 C 155.480469 344.015625 156.136719 343.292969 156.832031 342.597656 C 157.523438 341.90625 158.246094 341.25 159.003906 340.628906 C 159.757812 340.007812 160.546875 339.425781 161.359375 338.882812 C 162.171875 338.339844 163.011719 337.835938 163.875 337.375 C 164.738281 336.914062 165.621094 336.496094 166.523438 336.121094 C 167.429688 335.746094 168.351562 335.417969 169.285156 335.132812 C 170.222656 334.847656 171.171875 334.613281 172.132812 334.421875 C 173.089844 334.230469 174.058594 334.085938 175.03125 333.992188 C 176.007812 333.894531 176.984375 333.847656 177.960938 333.847656 C 178.941406 333.847656 179.917969 333.894531 180.890625 333.992188 C 181.863281 334.085938 182.832031 334.230469 183.792969 334.421875 C 184.75 334.613281 185.699219 334.847656 186.636719 335.132812 C 187.574219 335.417969 188.492188 335.746094 189.398438 336.121094 C 190.300781 336.496094 191.1875 336.914062 192.046875 337.375 C 192.910156 337.835938 193.75 338.339844 194.5625 338.882812 C 195.378906 339.425781 196.164062 340.007812 196.917969 340.628906 C 197.675781 341.25 198.402344 341.90625 199.09375 342.597656 C 199.785156 343.292969 200.441406 344.015625 201.0625 344.773438 C 201.683594 345.527344 202.265625 346.3125 202.808594 347.128906 C 203.351562 347.941406 203.855469 348.78125 204.316406 349.644531 C 204.777344 350.507812 205.195312 351.390625 205.570312 352.292969 C 205.945312 353.199219 206.273438 354.117188 206.558594 355.054688 C 206.84375 355.992188 207.082031 356.941406 207.273438 357.902344 C 207.460938 358.859375 207.605469 359.828125 207.703125 360.800781 C 207.796875 361.777344 207.847656 362.75 207.847656 363.730469 Z M 207.847656 363.730469 " fill-opacity="1" fill-rule="nonzero"/><path fill="#aed9b3" d="M 298.289062 393.613281 C 298.289062 394.59375 298.242188 395.570312 298.144531 396.542969 C 298.050781 397.519531 297.90625 398.484375 297.714844 399.445312 C 297.523438 400.40625 297.285156 401.351562 297.003906 402.289062 C 296.71875 403.226562 296.390625 404.148438 296.015625 405.050781 C 295.640625 405.957031 295.222656 406.839844 294.761719 407.703125 C 294.300781 408.566406 293.796875 409.402344 293.253906 410.21875 C 292.710938 411.03125 292.128906 411.816406 291.507812 412.574219 C 290.886719 413.328125 290.230469 414.054688 289.535156 414.746094 C 288.84375 415.4375 288.121094 416.09375 287.363281 416.714844 C 286.605469 417.335938 285.820312 417.917969 285.007812 418.460938 C 284.195312 419.007812 283.355469 419.507812 282.492188 419.96875 C 281.628906 420.433594 280.746094 420.851562 279.839844 421.222656 C 278.9375 421.597656 278.015625 421.929688 277.082031 422.210938 C 276.144531 422.496094 275.195312 422.734375 274.234375 422.925781 C 273.277344 423.117188 272.308594 423.257812 271.335938 423.355469 C 270.359375 423.449219 269.382812 423.5 268.40625 423.5 C 267.425781 423.5 266.449219 423.449219 265.476562 423.355469 C 264.503906 423.257812 263.535156 423.117188 262.574219 422.925781 C 261.617188 422.734375 260.667969 422.496094 259.730469 422.210938 C 258.792969 421.929688 257.875 421.597656 256.96875 421.222656 C 256.066406 420.851562 255.179688 420.433594 254.316406 419.96875 C 253.453125 419.507812 252.617188 419.007812 251.800781 418.460938 C 250.988281 417.917969 250.203125 417.335938 249.445312 416.714844 C 248.691406 416.09375 247.964844 415.4375 247.273438 414.746094 C 246.582031 414.054688 245.925781 413.328125 245.304688 412.574219 C 244.683594 411.816406 244.101562 411.03125 243.558594 410.21875 C 243.015625 409.402344 242.511719 408.566406 242.050781 407.703125 C 241.589844 406.839844 241.171875 405.957031 240.796875 405.050781 C 240.421875 404.148438 240.09375 403.226562 239.808594 402.289062 C 239.523438 401.351562 239.285156 400.40625 239.09375 399.445312 C 238.90625 398.484375 238.761719 397.519531 238.664062 396.542969 C 238.570312 395.570312 238.519531 394.59375 238.519531 393.613281 C 238.519531 392.636719 238.570312 391.660156 238.664062 390.6875 C 238.761719 389.710938 238.90625 388.746094 239.09375 387.785156 C 239.285156 386.824219 239.523438 385.875 239.808594 384.941406 C 240.09375 384.003906 240.421875 383.082031 240.796875 382.179688 C 241.171875 381.273438 241.589844 380.390625 242.050781 379.527344 C 242.511719 378.664062 243.015625 377.824219 243.558594 377.011719 C 244.101562 376.199219 244.683594 375.414062 245.304688 374.65625 C 245.925781 373.898438 246.582031 373.175781 247.273438 372.484375 C 247.964844 371.792969 248.691406 371.136719 249.445312 370.515625 C 250.203125 369.894531 250.988281 369.3125 251.800781 368.765625 C 252.617188 368.222656 253.453125 367.71875 254.316406 367.257812 C 255.179688 366.796875 256.066406 366.378906 256.96875 366.003906 C 257.875 365.628906 258.792969 365.300781 259.730469 365.015625 C 260.667969 364.734375 261.617188 364.496094 262.574219 364.304688 C 263.535156 364.113281 264.503906 363.96875 265.476562 363.875 C 266.449219 363.777344 267.425781 363.730469 268.40625 363.730469 C 269.382812 363.730469 270.359375 363.777344 271.335938 363.875 C 272.308594 363.96875 273.277344 364.113281 274.234375 364.304688 C 275.195312 364.496094 276.144531 364.734375 277.082031 365.015625 C 278.015625 365.300781 278.9375 365.628906 279.839844 366.003906 C 280.746094 366.378906 281.628906 366.796875 282.492188 367.257812 C 283.355469 367.71875 284.195312 368.222656 285.007812 368.765625 C 285.820312 369.3125 286.605469 369.894531 287.363281 370.515625 C 288.121094 371.136719 288.84375 371.792969 289.535156 372.484375 C 290.230469 373.175781 290.886719 373.898438 291.507812 374.65625 C 292.128906 375.414062 292.710938 376.199219 293.253906 377.011719 C 293.796875 377.824219 294.300781 378.664062 294.761719 379.527344 C 295.222656 380.390625 295.640625 381.273438 296.015625 382.179688 C 296.390625 383.082031 296.71875 384.003906 297.003906 384.941406 C 297.285156 385.875 297.523438 386.824219 297.714844 387.785156 C 297.90625 388.746094 298.050781 389.710938 298.144531 390.6875 C 298.242188 391.660156 298.289062 392.636719 298.289062 393.613281 Z M 298.289062 393.613281 " fill-opacity="1" fill-rule="nonzero"/><path fill="#aed9b3" d="M 439.03125 450.808594 C 439.03125 451.789062 438.984375 452.765625 438.886719 453.738281 C 438.792969 454.710938 438.648438 455.679688 438.457031 456.640625 C 438.265625 457.601562 438.027344 458.546875 437.746094 459.484375 C 437.460938 460.421875 437.132812 461.339844 436.757812 462.246094 C 436.382812 463.148438 435.964844 464.035156 435.503906 464.898438 C 435.042969 465.761719 434.539062 466.597656 433.996094 467.414062 C 433.449219 468.226562 432.867188 469.011719 432.246094 469.769531 C 431.628906 470.523438 430.96875 471.25 430.277344 471.941406 C 429.585938 472.632812 428.863281 473.289062 428.105469 473.910156 C 427.347656 474.53125 426.5625 475.113281 425.75 475.65625 C 424.9375 476.199219 424.097656 476.703125 423.234375 477.164062 C 422.371094 477.625 421.488281 478.042969 420.582031 478.417969 C 419.679688 478.792969 418.757812 479.121094 417.820312 479.40625 C 416.886719 479.691406 415.9375 479.929688 414.976562 480.121094 C 414.015625 480.308594 413.050781 480.453125 412.078125 480.550781 C 411.101562 480.644531 410.125 480.695312 409.148438 480.695312 C 408.167969 480.695312 407.191406 480.644531 406.21875 480.550781 C 405.242188 480.453125 404.277344 480.308594 403.316406 480.121094 C 402.355469 479.929688 401.410156 479.691406 400.472656 479.40625 C 399.535156 479.121094 398.613281 478.792969 397.710938 478.417969 C 396.804688 478.042969 395.921875 477.625 395.058594 477.164062 C 394.195312 476.703125 393.359375 476.199219 392.542969 475.65625 C 391.730469 475.113281 390.945312 474.53125 390.1875 473.910156 C 389.433594 473.289062 388.707031 472.632812 388.015625 471.941406 C 387.324219 471.25 386.667969 470.523438 386.046875 469.769531 C 385.425781 469.011719 384.84375 468.226562 384.300781 467.414062 C 383.753906 466.597656 383.253906 465.761719 382.792969 464.898438 C 382.332031 464.035156 381.914062 463.148438 381.539062 462.246094 C 381.164062 461.339844 380.832031 460.421875 380.550781 459.484375 C 380.265625 458.546875 380.027344 457.601562 379.835938 456.640625 C 379.644531 455.679688 379.503906 454.710938 379.40625 453.738281 C 379.3125 452.765625 379.261719 451.789062 379.261719 450.808594 C 379.261719 449.832031 379.3125 448.855469 379.40625 447.878906 C 379.503906 446.90625 379.644531 445.9375 379.835938 444.980469 C 380.027344 444.019531 380.265625 443.070312 380.550781 442.132812 C 380.832031 441.199219 381.164062 440.277344 381.539062 439.375 C 381.914062 438.46875 382.332031 437.585938 382.792969 436.722656 C 383.253906 435.859375 383.753906 435.019531 384.300781 434.207031 C 384.84375 433.394531 385.425781 432.609375 386.046875 431.851562 C 386.667969 431.09375 387.324219 430.371094 388.015625 429.679688 C 388.707031 428.984375 389.433594 428.328125 390.1875 427.707031 C 390.945312 427.085938 391.730469 426.503906 392.542969 425.960938 C 393.359375 425.417969 394.195312 424.914062 395.058594 424.453125 C 395.921875 423.992188 396.804688 423.574219 397.710938 423.199219 C 398.613281 422.824219 399.535156 422.496094 400.472656 422.210938 C 401.410156 421.929688 402.355469 421.691406 403.316406 421.5 C 404.277344 421.308594 405.242188 421.164062 406.21875 421.070312 C 407.191406 420.972656 408.167969 420.925781 409.148438 420.925781 C 410.125 420.925781 411.101562 420.972656 412.078125 421.070312 C 413.050781 421.164062 414.015625 421.308594 414.976562 421.5 C 415.9375 421.691406 416.886719 421.929688 417.820312 422.210938 C 418.757812 422.496094 419.679688 422.824219 420.582031 423.199219 C 421.488281 423.574219 422.371094 423.992188 423.234375 424.453125 C 424.097656 424.914062 424.9375 425.417969 425.75 425.960938 C 426.5625 426.503906 427.347656 427.085938 428.105469 427.707031 C 428.863281 428.328125 429.585938 428.984375 430.277344 429.679688 C 430.96875 430.371094 431.628906 431.09375 432.246094 431.851562 C 432.867188 432.609375 433.449219 433.394531 433.996094 434.207031 C 434.539062 435.019531 435.042969 435.859375 435.503906 436.722656 C 435.964844 437.585938 436.382812 438.46875 436.757812 439.375 C 437.132812 440.277344 437.460938 441.199219 437.746094 442.132812 C 438.027344 443.070312 438.265625 444.019531 438.457031 444.980469 C 438.648438 445.9375 438.792969 446.90625 438.886719 447.878906 C 438.984375 448.855469 439.03125 449.832031 439.03125 450.808594 Z M 439.03125 450.808594 " fill-opacity="1" fill-rule="nonzero"/><path fill="#aed9b3" d="M 547 417.714844 C 547 418.695312 546.953125 419.671875 546.855469 420.644531 C 546.761719 421.617188 546.617188 422.585938 546.425781 423.546875 C 546.234375 424.503906 546 425.453125 545.714844 426.390625 C 545.429688 427.328125 545.101562 428.246094 544.726562 429.152344 C 544.351562 430.054688 543.933594 430.941406 543.472656 431.804688 C 543.011719 432.664062 542.507812 433.503906 541.964844 434.316406 C 541.421875 435.132812 540.839844 435.917969 540.21875 436.671875 C 539.597656 437.429688 538.941406 438.15625 538.25 438.847656 C 537.554688 439.539062 536.832031 440.195312 536.074219 440.816406 C 535.320312 441.4375 534.535156 442.019531 533.71875 442.5625 C 532.90625 443.105469 532.066406 443.609375 531.203125 444.070312 C 530.339844 444.53125 529.457031 444.949219 528.554688 445.324219 C 527.648438 445.699219 526.726562 446.027344 525.792969 446.3125 C 524.855469 446.597656 523.90625 446.835938 522.945312 447.027344 C 521.988281 447.214844 521.019531 447.359375 520.046875 447.457031 C 519.070312 447.550781 518.09375 447.601562 517.117188 447.601562 C 516.136719 447.601562 515.160156 447.550781 514.1875 447.457031 C 513.214844 447.359375 512.246094 447.214844 511.285156 447.027344 C 510.328125 446.835938 509.378906 446.597656 508.441406 446.3125 C 507.503906 446.027344 506.585938 445.699219 505.679688 445.324219 C 504.777344 444.949219 503.894531 444.53125 503.03125 444.070312 C 502.167969 443.609375 501.328125 443.105469 500.515625 442.5625 C 499.699219 442.019531 498.914062 441.4375 498.160156 440.816406 C 497.402344 440.195312 496.675781 439.539062 495.984375 438.847656 C 495.292969 438.15625 494.636719 437.429688 494.015625 436.671875 C 493.394531 435.917969 492.8125 435.132812 492.269531 434.316406 C 491.726562 433.503906 491.222656 432.664062 490.761719 431.804688 C 490.300781 430.941406 489.882812 430.054688 489.507812 429.152344 C 489.132812 428.246094 488.804688 427.328125 488.519531 426.390625 C 488.234375 425.453125 487.996094 424.503906 487.808594 423.546875 C 487.617188 422.585938 487.472656 421.617188 487.375 420.644531 C 487.28125 419.671875 487.234375 418.695312 487.234375 417.714844 C 487.234375 416.738281 487.28125 415.761719 487.375 414.785156 C 487.472656 413.8125 487.617188 412.84375 487.808594 411.886719 C 487.996094 410.925781 488.234375 409.976562 488.519531 409.039062 C 488.804688 408.105469 489.132812 407.183594 489.507812 406.277344 C 489.882812 405.375 490.300781 404.492188 490.761719 403.628906 C 491.222656 402.765625 491.726562 401.925781 492.269531 401.113281 C 492.8125 400.300781 493.394531 399.515625 494.015625 398.757812 C 494.636719 398 495.292969 397.277344 495.984375 396.585938 C 496.675781 395.890625 497.402344 395.234375 498.160156 394.613281 C 498.914062 393.992188 499.699219 393.410156 500.515625 392.867188 C 501.328125 392.324219 502.167969 391.820312 503.03125 391.359375 C 503.894531 390.898438 504.777344 390.480469 505.679688 390.105469 C 506.585938 389.730469 507.503906 389.402344 508.441406 389.117188 C 509.378906 388.835938 510.328125 388.597656 511.285156 388.40625 C 512.246094 388.214844 513.214844 388.070312 514.1875 387.976562 C 515.160156 387.878906 516.136719 387.832031 517.117188 387.832031 C 518.09375 387.832031 519.070312 387.878906 520.046875 387.976562 C 521.019531 388.070312 521.988281 388.214844 522.945312 388.40625 C 523.90625 388.597656 524.855469 388.835938 525.792969 389.117188 C 526.726562 389.402344 527.648438 389.730469 528.554688 390.105469 C 529.457031 390.480469 530.339844 390.898438 531.203125 391.359375 C 532.066406 391.820312 532.90625 392.324219 533.71875 392.867188 C 534.535156 393.410156 535.320312 393.992188 536.074219 394.613281 C 536.832031 395.234375 537.554688 395.890625 538.25 396.585938 C 538.941406 397.277344 539.597656 398 540.21875 398.757812 C 540.839844 399.515625 541.421875 400.300781 541.964844 401.113281 C 542.507812 401.925781 543.011719 402.765625 543.472656 403.628906 C 543.933594 404.492188 544.351562 405.375 544.726562 406.277344 C 545.101562 407.183594 545.429688 408.105469 545.714844 409.039062 C 546 409.976562 546.234375 410.925781 546.425781 411.886719 C 546.617188 412.84375 546.761719 413.8125 546.855469 414.785156 C 546.953125 415.761719 547 416.738281 547 417.714844 Z M 547 417.714844 " fill-opacity="1" fill-rule="nonzero"/><path fill="#aed9b3" d="M 581.703125 336.683594 C 581.703125 337.664062 581.652344 338.640625 581.558594 339.613281 C 581.460938 340.589844 581.320312 341.554688 581.128906 342.515625 C 580.9375 343.476562 580.699219 344.421875 580.414062 345.359375 C 580.132812 346.296875 579.800781 347.21875 579.425781 348.121094 C 579.054688 349.027344 578.636719 349.910156 578.171875 350.773438 C 577.710938 351.636719 577.210938 352.472656 576.664062 353.289062 C 576.121094 354.101562 575.539062 354.886719 574.917969 355.644531 C 574.296875 356.398438 573.640625 357.125 572.949219 357.816406 C 572.257812 358.507812 571.53125 359.164062 570.777344 359.785156 C 570.019531 360.40625 569.234375 360.988281 568.421875 361.53125 C 567.605469 362.078125 566.769531 362.578125 565.90625 363.039062 C 565.042969 363.5 564.160156 363.921875 563.253906 364.292969 C 562.351562 364.667969 561.429688 365 560.492188 365.28125 C 559.554688 365.566406 558.609375 365.804688 557.648438 365.996094 C 556.6875 366.1875 555.722656 366.328125 554.746094 366.425781 C 553.773438 366.519531 552.796875 366.570312 551.816406 366.570312 C 550.839844 366.570312 549.863281 366.519531 548.890625 366.425781 C 547.914062 366.328125 546.949219 366.1875 545.988281 365.996094 C 545.027344 365.804688 544.078125 365.566406 543.144531 365.28125 C 542.207031 365 541.285156 364.667969 540.382812 364.292969 C 539.476562 363.921875 538.59375 363.5 537.730469 363.039062 C 536.867188 362.578125 536.027344 362.078125 535.214844 361.53125 C 534.402344 360.988281 533.617188 360.40625 532.859375 359.785156 C 532.101562 359.164062 531.378906 358.507812 530.6875 357.816406 C 529.996094 357.125 529.339844 356.398438 528.71875 355.644531 C 528.097656 354.886719 527.515625 354.101562 526.96875 353.289062 C 526.425781 352.472656 525.921875 351.636719 525.460938 350.773438 C 525 349.910156 524.582031 349.027344 524.207031 348.121094 C 523.832031 347.21875 523.503906 346.296875 523.21875 345.359375 C 522.9375 344.421875 522.699219 343.476562 522.507812 342.515625 C 522.316406 341.554688 522.171875 340.589844 522.078125 339.613281 C 521.980469 338.640625 521.933594 337.664062 521.933594 336.683594 C 521.933594 335.707031 521.980469 334.730469 522.078125 333.757812 C 522.171875 332.78125 522.316406 331.816406 522.507812 330.855469 C 522.699219 329.894531 522.9375 328.945312 523.21875 328.011719 C 523.503906 327.074219 523.832031 326.152344 524.207031 325.25 C 524.582031 324.34375 525 323.460938 525.460938 322.597656 C 525.921875 321.734375 526.425781 320.894531 526.96875 320.082031 C 527.515625 319.269531 528.097656 318.484375 528.71875 317.726562 C 529.339844 316.96875 529.996094 316.246094 530.6875 315.554688 C 531.378906 314.863281 532.101562 314.207031 532.859375 313.585938 C 533.617188 312.964844 534.402344 312.382812 535.214844 311.835938 C 536.027344 311.292969 536.867188 310.789062 537.730469 310.328125 C 538.59375 309.867188 539.476562 309.449219 540.382812 309.074219 C 541.285156 308.699219 542.207031 308.371094 543.144531 308.085938 C 544.078125 307.804688 545.027344 307.566406 545.988281 307.375 C 546.949219 307.183594 547.914062 307.039062 548.890625 306.945312 C 549.863281 306.847656 550.839844 306.800781 551.816406 306.800781 C 552.796875 306.800781 553.773438 306.847656 554.746094 306.945312 C 555.722656 307.039062 556.6875 307.183594 557.648438 307.375 C 558.609375 307.566406 559.554688 307.804688 560.492188 308.085938 C 561.429688 308.371094 562.351562 308.699219 563.253906 309.074219 C 564.160156 309.449219 565.042969 309.867188 565.90625 310.328125 C 566.769531 310.789062 567.605469 311.292969 568.421875 311.835938 C 569.234375 312.382812 570.019531 312.964844 570.777344 313.585938 C 571.53125 314.207031 572.257812 314.863281 572.949219 315.554688 C 573.640625 316.246094 574.296875 316.96875 574.917969 317.726562 C 575.539062 318.484375 576.121094 319.269531 576.664062 320.082031 C 577.210938 320.894531 577.710938 321.734375 578.171875 322.597656 C 578.636719 323.460938 579.054688 324.34375 579.425781 325.25 C 579.800781 326.152344 580.132812 327.074219 580.414062 328.011719 C 580.699219 328.945312 580.9375 329.894531 581.128906 330.855469 C 581.320312 331.816406 581.460938 332.78125 581.558594 333.757812 C 581.652344 334.730469 581.703125 335.707031 581.703125 336.683594 Z M 581.703125 336.683594 " fill-opacity="1" fill-rule="nonzero"/></svg>