<svg xmlns="http://www.w3.org/2000/svg" xmlns:xlink="http://www.w3.org/1999/xlink" width="1587" zoomAndPan="magnify" viewBox="0 0 1190.25 1275.74994" height="1700" preserveAspectRatio="xMidYMid meet" version="1.0"><defs><clipPath id="bc54b7886b"><path d="M 764 328 L 1189.5 328 L 1189.5 1273 L 764 1273 Z M 764 328 " clip-rule="nonzero"/></clipPath><clipPath id="a04b9126a5"><path d="M 0.292969 988 L 60 988 L 60 1049 L 0.292969 1049 Z M 0.292969 988 " clip-rule="nonzero"/></clipPath></defs><path fill="#474f7b" d="M 243.019531 1272.324219 C 243.019531 1272.324219 74.640625 999.101562 279.648438 966.035156 C 458.957031 937.117188 480.160156 1145.34375 622.832031 1018.09375 C 765.503906 890.84375 780.925781 1225.785156 649.828125 1272.324219 Z M 243.019531 1272.324219 " fill-opacity="1" fill-rule="nonzero"/><g clip-path="url(#bc54b7886b)"><path fill="#474f7b" d="M 886.96875 1272.324219 C 886.96875 1272.324219 611.265625 1072.074219 886.96875 890.84375 C 986.207031 825.609375 940.734375 780.765625 935.167969 678.761719 C 925.277344 497.390625 942.882812 281.597656 1189.664062 337.507812 L 1189.664062 1272.324219 Z M 886.96875 1272.324219 " fill-opacity="1" fill-rule="nonzero"/></g><path fill="#1d3020" d="M 614.582031 579.769531 C 612.53125 579.769531 610.773438 581.320312 610.5625 583.398438 C 610.335938 585.621094 611.949219 587.609375 614.171875 587.835938 C 680.414062 594.640625 733.628906 626.328125 781.636719 687.5625 C 826.394531 744.648438 864.378906 823.460938 908.359375 914.710938 C 927.0625 953.511719 946.402344 993.636719 968.09375 1036.042969 C 996.886719 1092.332031 1026.050781 1139.738281 1054.761719 1176.941406 C 1077.839844 1206.835938 1100.714844 1230.28125 1122.746094 1246.628906 C 1161.0625 1275.050781 1183.898438 1272.328125 1184.851562 1272.195312 C 1187.066406 1271.894531 1188.617188 1269.855469 1188.3125 1267.644531 C 1188.011719 1265.441406 1185.992188 1263.894531 1183.792969 1264.175781 C 1183.355469 1264.222656 1162.152344 1266.203125 1126.277344 1239.167969 C 1092.726562 1213.878906 1039.292969 1157.472656 975.296875 1032.359375 C 953.644531 990.035156 934.328125 949.960938 915.644531 911.199219 C 827.175781 727.640625 763.253906 595.015625 614.996094 579.792969 C 614.859375 579.777344 614.71875 579.769531 614.582031 579.769531 Z M 614.582031 579.769531 " fill-opacity="1" fill-rule="nonzero"/><path fill="#3d7746" d="M 1136.640625 1208 C 1136.640625 1208 1115.136719 1146.96875 1121.214844 1091.351562 C 1127.960938 1029.65625 1117.234375 994.953125 1117.234375 994.953125 C 1117.234375 994.953125 1156.992188 1090.203125 1153.027344 1132.804688 C 1149.175781 1174.261719 1136.640625 1208 1136.640625 1208 Z M 1136.640625 1208 " fill-opacity="1" fill-rule="nonzero"/><path fill="#3d7746" d="M 1056.480469 1111.976562 C 1056.480469 1111.976562 1034.972656 1050.945312 1041.054688 995.328125 C 1047.800781 933.632812 1037.074219 898.929688 1037.074219 898.929688 C 1037.074219 898.929688 1076.828125 994.179688 1072.863281 1036.78125 C 1069.015625 1078.238281 1056.480469 1111.976562 1056.480469 1111.976562 Z M 1056.480469 1111.976562 " fill-opacity="1" fill-rule="nonzero"/><path fill="#3d7746" d="M 984.367188 968.929688 C 984.367188 968.929688 962.859375 907.898438 968.941406 852.285156 C 975.6875 790.585938 964.960938 755.886719 964.960938 755.886719 C 964.960938 755.886719 1004.714844 851.132812 1000.75 893.734375 C 996.898438 935.1875 984.367188 968.929688 984.367188 968.929688 Z M 984.367188 968.929688 " fill-opacity="1" fill-rule="nonzero"/><path fill="#3d7746" d="M 918.851562 845.808594 C 918.851562 845.808594 897.34375 784.777344 903.425781 729.160156 C 910.171875 667.464844 899.445312 632.761719 899.445312 632.761719 C 899.445312 632.761719 939.199219 728.011719 935.234375 770.613281 C 931.378906 812.066406 918.851562 845.808594 918.851562 845.808594 Z M 918.851562 845.808594 " fill-opacity="1" fill-rule="nonzero"/><path fill="#3d7746" d="M 848.355469 714.433594 C 848.355469 714.433594 826.847656 653.40625 832.929688 597.789062 C 839.675781 536.089844 828.949219 501.390625 828.949219 501.390625 C 828.949219 501.390625 868.703125 596.636719 864.738281 639.238281 C 860.890625 680.691406 848.355469 714.433594 848.355469 714.433594 Z M 848.355469 714.433594 " fill-opacity="1" fill-rule="nonzero"/><path fill="#3d7746" d="M 777.3125 607.910156 C 777.3125 607.910156 755.808594 546.882812 761.886719 491.265625 C 768.632812 429.570312 757.90625 394.867188 757.90625 394.867188 C 757.90625 394.867188 797.664062 490.117188 793.699219 532.71875 C 789.847656 574.167969 777.3125 607.910156 777.3125 607.910156 Z M 777.3125 607.910156 " fill-opacity="1" fill-rule="nonzero"/><path fill="#3d7746" d="M 728.839844 587.945312 C 728.839844 587.945312 683.234375 542.039062 664.882812 489.191406 C 644.515625 430.5625 619.945312 403.8125 619.945312 403.8125 C 619.945312 403.8125 696.703125 472.808594 711.394531 512.992188 C 725.691406 552.097656 728.839844 587.945312 728.839844 587.945312 Z M 728.839844 587.945312 " fill-opacity="1" fill-rule="nonzero"/><path fill="#3d7746" d="M 636.609375 566.089844 C 636.609375 566.089844 578.859375 536.894531 544.777344 492.53125 C 506.972656 443.308594 475.21875 425.675781 475.21875 425.675781 C 475.21875 425.675781 569.816406 466.953125 596.425781 500.460938 C 622.316406 533.054688 636.609375 566.089844 636.609375 566.089844 Z M 636.609375 566.089844 " fill-opacity="1" fill-rule="nonzero"/><path fill="#3d7746" d="M 674.390625 625.96875 C 674.390625 625.96875 611.25 640.136719 556.742188 627.546875 C 496.269531 613.582031 460.542969 620.148438 460.542969 620.148438 C 460.542969 620.148438 559.808594 591.886719 601.652344 600.839844 C 642.359375 609.550781 674.390625 625.96875 674.390625 625.96875 Z M 674.390625 625.96875 " fill-opacity="1" fill-rule="nonzero"/><path fill="#3d7746" d="M 782.980469 736.144531 C 782.980469 736.144531 718.515625 730.503906 670.386719 701.976562 C 617 670.335938 580.964844 665.757812 580.964844 665.757812 C 580.964844 665.757812 684.128906 668.925781 721.28125 690.140625 C 757.433594 710.789062 782.980469 736.144531 782.980469 736.144531 Z M 782.980469 736.144531 " fill-opacity="1" fill-rule="nonzero"/><path fill="#3d7746" d="M 861.292969 854.535156 C 861.292969 854.535156 797.75 842.304688 752.804688 808.988281 C 702.949219 772.027344 667.570312 763.777344 667.570312 763.777344 C 667.570312 763.777344 769.863281 777.523438 804.644531 802.4375 C 838.488281 826.691406 861.292969 854.535156 861.292969 854.535156 Z M 861.292969 854.535156 " fill-opacity="1" fill-rule="nonzero"/><path fill="#3d7746" d="M 910.539062 954.265625 C 910.539062 954.265625 846.996094 942.035156 802.050781 908.71875 C 752.195312 871.757812 716.816406 863.507812 716.816406 863.507812 C 716.816406 863.507812 819.109375 877.253906 853.890625 902.167969 C 887.730469 926.421875 910.539062 954.265625 910.539062 954.265625 Z M 910.539062 954.265625 " fill-opacity="1" fill-rule="nonzero"/><path fill="#3d7746" d="M 943.847656 1040.332031 C 943.847656 1040.332031 880.308594 1028.101562 835.359375 994.789062 C 785.503906 957.828125 750.125 949.574219 750.125 949.574219 C 750.125 949.574219 852.417969 963.320312 887.199219 988.238281 C 921.042969 1012.488281 943.847656 1040.332031 943.847656 1040.332031 Z M 943.847656 1040.332031 " fill-opacity="1" fill-rule="nonzero"/><path fill="#3d7746" d="M 1007.398438 1146.855469 C 1007.398438 1146.855469 943.855469 1134.625 898.910156 1101.308594 C 849.054688 1064.347656 813.675781 1056.097656 813.675781 1056.097656 C 813.675781 1056.097656 915.96875 1069.84375 950.75 1094.757812 C 984.589844 1119.011719 1007.398438 1146.855469 1007.398438 1146.855469 Z M 1007.398438 1146.855469 " fill-opacity="1" fill-rule="nonzero"/><path fill="#3d7746" d="M 1085.378906 1241.714844 C 1085.378906 1241.714844 1020.839844 1237.015625 972.300781 1209.195312 C 918.457031 1178.332031 882.359375 1174.28125 882.359375 1174.28125 C 882.359375 1174.28125 985.558594 1175.945312 1023.019531 1196.617188 C 1059.46875 1216.734375 1085.378906 1241.714844 1085.378906 1241.714844 Z M 1085.378906 1241.714844 " fill-opacity="1" fill-rule="nonzero"/><path fill="#1d3020" d="M 508.4375 871.1875 C 507.519531 871.1875 506.597656 871.5 505.839844 872.132812 C 455.171875 914.628906 427.671875 965.691406 424.117188 1023.882812 C 420.0625 1090.203125 448.371094 1153.898438 472.835938 1195.65625 C 499.257812 1240.753906 527.054688 1270.738281 527.332031 1271.039062 C 528.757812 1272.5625 531.105469 1272.753906 532.761719 1271.484375 C 534.414062 1270.210938 534.828125 1267.886719 533.710938 1266.117188 C 533.46875 1265.734375 509.28125 1226.941406 497.320312 1168.480469 C 486.316406 1114.699219 483.707031 1032.71875 533.777344 947.585938 C 534.90625 945.660156 534.265625 943.179688 532.34375 942.050781 C 530.414062 940.917969 527.9375 941.5625 526.804688 943.484375 C 504.09375 982.101562 489.957031 1023.324219 484.792969 1066.007812 C 480.660156 1100.148438 482.230469 1135.273438 489.457031 1170.414062 C 495.039062 1197.582031 503.058594 1220.367188 510.246094 1237.304688 C 501.132812 1225.132812 490.3125 1209.503906 479.714844 1191.394531 C 455.863281 1150.640625 428.257812 1088.574219 432.195312 1024.34375 C 435.621094 968.464844 462.148438 919.339844 511.039062 878.335938 C 512.753906 876.898438 512.972656 874.347656 511.539062 872.636719 C 510.738281 871.675781 509.589844 871.1875 508.4375 871.1875 Z M 508.4375 871.1875 " fill-opacity="1" fill-rule="nonzero"/><path fill="#1d3020" d="M 405.929688 837.71875 C 403.890625 837.71875 402.136719 839.257812 401.910156 841.328125 C 395.601562 899.738281 398.257812 958.667969 409.808594 1016.472656 C 419.046875 1062.703125 433.957031 1108.328125 454.136719 1152.070312 C 467.332031 1180.675781 481.113281 1204.777344 493.113281 1223.636719 C 384.5625 1100.3125 279.09375 905.128906 277.914062 902.933594 C 276.851562 900.964844 274.40625 900.226562 272.433594 901.285156 C 270.46875 902.339844 269.730469 904.796875 270.789062 906.761719 C 271.121094 907.382812 304.671875 969.640625 352.816406 1045.257812 C 397.300781 1115.125 463.71875 1211.042969 527.511719 1271.222656 C 529.085938 1272.703125 531.546875 1272.691406 533.097656 1271.1875 C 534.652344 1269.6875 534.75 1267.226562 533.320312 1265.605469 C 532.945312 1265.175781 495.230469 1221.949219 461.355469 1148.414062 C 430.132812 1080.644531 395.871094 972.503906 409.949219 842.195312 C 410.191406 839.976562 408.585938 837.980469 406.367188 837.742188 C 406.222656 837.726562 406.070312 837.71875 405.929688 837.71875 Z M 405.929688 837.71875 " fill-opacity="1" fill-rule="nonzero"/><path fill="#1d3020" d="M 86.269531 1004.972656 C 62.175781 1004.972656 48.785156 1008.414062 47.726562 1008.695312 C 45.570312 1009.273438 44.289062 1011.488281 44.863281 1013.648438 C 45.441406 1015.804688 47.65625 1017.085938 49.8125 1016.511719 C 50.304688 1016.378906 100.101562 1003.734375 183.386719 1028.636719 C 253.109375 1049.476562 359.832031 1101.21875 486.75 1228.460938 C 468.789062 1215.566406 446.074219 1200.613281 419.464844 1185.820312 C 378.285156 1162.925781 335.914062 1144.871094 293.542969 1132.152344 C 240.515625 1116.238281 187.335938 1108.679688 135.453125 1109.699219 C 133.21875 1109.742188 131.445312 1111.585938 131.488281 1113.824219 C 131.535156 1116.027344 133.332031 1117.785156 135.53125 1117.785156 C 135.558594 1117.785156 135.585938 1117.785156 135.613281 1117.785156 C 251.253906 1115.53125 351.660156 1157.378906 415.539062 1192.890625 C 484.789062 1231.390625 527.101562 1270.839844 527.519531 1271.230469 C 529.105469 1272.71875 531.582031 1272.6875 533.128906 1271.164062 C 534.679688 1269.640625 534.746094 1267.164062 533.28125 1265.554688 C 468.738281 1194.808594 403.148438 1137.277344 338.324219 1094.5625 C 286.355469 1060.316406 234.753906 1035.453125 184.945312 1020.65625 C 142.996094 1008.199219 109.613281 1004.972656 86.269531 1004.972656 Z M 86.269531 1004.972656 " fill-opacity="1" fill-rule="nonzero"/><path fill="#1d3020" d="M 187.585938 914.566406 C 187.125 914.566406 186.65625 914.640625 186.199219 914.808594 C 184.101562 915.574219 183.019531 917.898438 183.785156 919.992188 C 183.894531 920.300781 195.238281 951.132812 216.871094 987.105469 C 236.914062 1020.4375 270.175781 1065.199219 314.820312 1089.171875 C 316.789062 1090.226562 319.242188 1089.488281 320.296875 1087.519531 C 321.355469 1085.554688 320.617188 1083.097656 318.644531 1082.042969 C 236.101562 1037.726562 191.824219 918.425781 191.386719 917.222656 C 190.789062 915.585938 189.238281 914.566406 187.585938 914.566406 Z M 187.585938 914.566406 " fill-opacity="1" fill-rule="nonzero"/><path fill="#aed9b3" d="M 144.851562 1125.578125 C 144.851562 1124.597656 144.804688 1123.621094 144.707031 1122.648438 C 144.609375 1121.675781 144.46875 1120.707031 144.277344 1119.746094 C 144.085938 1118.789062 143.847656 1117.839844 143.5625 1116.902344 C 143.28125 1115.964844 142.949219 1115.046875 142.578125 1114.140625 C 142.203125 1113.238281 141.785156 1112.351562 141.324219 1111.488281 C 140.859375 1110.625 140.359375 1109.789062 139.816406 1108.972656 C 139.269531 1108.160156 138.6875 1107.375 138.066406 1106.617188 C 137.445312 1105.863281 136.789062 1105.136719 136.097656 1104.445312 C 135.40625 1103.753906 134.683594 1103.097656 133.925781 1102.476562 C 133.167969 1101.855469 132.382812 1101.273438 131.570312 1100.730469 C 130.757812 1100.1875 129.917969 1099.683594 129.054688 1099.222656 C 128.191406 1098.761719 127.308594 1098.34375 126.402344 1097.96875 C 125.5 1097.59375 124.578125 1097.265625 123.640625 1096.980469 C 122.707031 1096.695312 121.757812 1096.457031 120.796875 1096.265625 C 119.835938 1096.078125 118.871094 1095.933594 117.894531 1095.835938 C 116.921875 1095.742188 115.945312 1095.691406 114.96875 1095.691406 C 113.988281 1095.691406 113.011719 1095.742188 112.039062 1095.835938 C 111.0625 1095.933594 110.097656 1096.078125 109.136719 1096.265625 C 108.175781 1096.457031 107.230469 1096.695312 106.292969 1096.980469 C 105.355469 1097.265625 104.433594 1097.59375 103.53125 1097.96875 C 102.625 1098.34375 101.742188 1098.761719 100.878906 1099.222656 C 100.015625 1099.683594 99.179688 1100.1875 98.363281 1100.730469 C 97.550781 1101.273438 96.765625 1101.855469 96.007812 1102.476562 C 95.253906 1103.097656 94.527344 1103.753906 93.835938 1104.445312 C 93.144531 1105.136719 92.488281 1105.863281 91.867188 1106.617188 C 91.246094 1107.375 90.664062 1108.160156 90.117188 1108.972656 C 89.574219 1109.789062 89.074219 1110.625 88.613281 1111.488281 C 88.148438 1112.351562 87.730469 1113.238281 87.359375 1114.140625 C 86.984375 1115.046875 86.652344 1115.964844 86.371094 1116.902344 C 86.085938 1117.839844 85.847656 1118.789062 85.65625 1119.746094 C 85.464844 1120.707031 85.324219 1121.675781 85.226562 1122.648438 C 85.128906 1123.621094 85.082031 1124.597656 85.082031 1125.578125 C 85.082031 1126.554688 85.128906 1127.53125 85.226562 1128.507812 C 85.324219 1129.480469 85.464844 1130.449219 85.65625 1131.40625 C 85.847656 1132.367188 86.085938 1133.316406 86.371094 1134.253906 C 86.652344 1135.1875 86.984375 1136.109375 87.359375 1137.011719 C 87.730469 1137.917969 88.148438 1138.800781 88.613281 1139.664062 C 89.074219 1140.527344 89.574219 1141.367188 90.117188 1142.179688 C 90.664062 1142.992188 91.246094 1143.777344 91.867188 1144.535156 C 92.488281 1145.292969 93.144531 1146.015625 93.835938 1146.707031 C 94.527344 1147.402344 95.253906 1148.058594 96.007812 1148.679688 C 96.765625 1149.300781 97.550781 1149.882812 98.363281 1150.425781 C 99.179688 1150.96875 100.015625 1151.472656 100.878906 1151.933594 C 101.742188 1152.394531 102.625 1152.8125 103.53125 1153.1875 C 104.433594 1153.5625 105.355469 1153.890625 106.292969 1154.175781 C 107.230469 1154.457031 108.175781 1154.695312 109.136719 1154.886719 C 110.097656 1155.078125 111.0625 1155.222656 112.039062 1155.316406 C 113.011719 1155.414062 113.988281 1155.460938 114.96875 1155.460938 C 115.945312 1155.460938 116.921875 1155.414062 117.894531 1155.316406 C 118.871094 1155.222656 119.835938 1155.078125 120.796875 1154.886719 C 121.757812 1154.695312 122.707031 1154.457031 123.640625 1154.175781 C 124.578125 1153.890625 125.5 1153.5625 126.402344 1153.1875 C 127.308594 1152.8125 128.191406 1152.394531 129.054688 1151.933594 C 129.917969 1151.472656 130.757812 1150.96875 131.570312 1150.425781 C 132.382812 1149.882812 133.167969 1149.300781 133.925781 1148.679688 C 134.683594 1148.058594 135.40625 1147.402344 136.097656 1146.707031 C 136.789062 1146.015625 137.445312 1145.292969 138.066406 1144.535156 C 138.6875 1143.777344 139.269531 1142.992188 139.816406 1142.179688 C 140.359375 1141.367188 140.859375 1140.527344 141.324219 1139.664062 C 141.785156 1138.800781 142.203125 1137.917969 142.578125 1137.011719 C 142.949219 1136.109375 143.28125 1135.1875 143.5625 1134.253906 C 143.847656 1133.316406 144.085938 1132.367188 144.277344 1131.40625 C 144.46875 1130.449219 144.609375 1129.480469 144.707031 1128.507812 C 144.804688 1127.53125 144.851562 1126.554688 144.851562 1125.578125 Z M 144.851562 1125.578125 " fill-opacity="1" fill-rule="nonzero"/><g clip-path="url(#a04b9126a5)"><path fill="#aed9b3" d="M 59.859375 1018.410156 C 59.859375 1017.433594 59.8125 1016.457031 59.714844 1015.480469 C 59.621094 1014.507812 59.476562 1013.539062 59.285156 1012.582031 C 59.09375 1011.621094 58.859375 1010.671875 58.574219 1009.734375 C 58.289062 1008.800781 57.960938 1007.878906 57.585938 1006.976562 C 57.210938 1006.070312 56.792969 1005.1875 56.332031 1004.324219 C 55.871094 1003.460938 55.367188 1002.621094 54.824219 1001.808594 C 54.28125 1000.996094 53.699219 1000.210938 53.078125 999.453125 C 52.457031 998.695312 51.800781 997.972656 51.109375 997.28125 C 50.414062 996.585938 49.691406 995.929688 48.933594 995.308594 C 48.179688 994.6875 47.394531 994.105469 46.578125 993.5625 C 45.765625 993.019531 44.925781 992.515625 44.0625 992.054688 C 43.199219 991.59375 42.316406 991.175781 41.414062 990.800781 C 40.507812 990.425781 39.585938 990.097656 38.652344 989.8125 C 37.714844 989.53125 36.765625 989.292969 35.804688 989.101562 C 34.847656 988.910156 33.878906 988.765625 32.90625 988.671875 C 31.929688 988.574219 30.953125 988.527344 29.976562 988.527344 C 28.996094 988.527344 28.019531 988.574219 27.046875 988.671875 C 26.074219 988.765625 25.105469 988.910156 24.144531 989.101562 C 23.1875 989.292969 22.238281 989.53125 21.300781 989.8125 C 20.363281 990.097656 19.445312 990.425781 18.539062 990.800781 C 17.636719 991.175781 16.753906 991.59375 15.890625 992.054688 C 15.027344 992.515625 14.1875 993.019531 13.375 993.5625 C 12.558594 994.105469 11.773438 994.6875 11.019531 995.308594 C 10.261719 995.929688 9.535156 996.585938 8.84375 997.28125 C 8.152344 997.972656 7.496094 998.695312 6.875 999.453125 C 6.253906 1000.210938 5.671875 1000.996094 5.128906 1001.808594 C 4.585938 1002.621094 4.082031 1003.460938 3.621094 1004.324219 C 3.160156 1005.1875 2.742188 1006.070312 2.367188 1006.976562 C 1.992188 1007.878906 1.664062 1008.800781 1.378906 1009.734375 C 1.09375 1010.671875 0.855469 1011.621094 0.667969 1012.582031 C 0.476562 1013.539062 0.332031 1014.507812 0.234375 1015.480469 C 0.140625 1016.457031 0.09375 1017.433594 0.09375 1018.410156 C 0.09375 1019.390625 0.140625 1020.367188 0.234375 1021.339844 C 0.332031 1022.3125 0.476562 1023.28125 0.667969 1024.242188 C 0.855469 1025.199219 1.09375 1026.148438 1.378906 1027.085938 C 1.664062 1028.023438 1.992188 1028.941406 2.367188 1029.847656 C 2.742188 1030.75 3.160156 1031.636719 3.621094 1032.5 C 4.082031 1033.363281 4.585938 1034.199219 5.128906 1035.015625 C 5.671875 1035.828125 6.253906 1036.613281 6.875 1037.371094 C 7.496094 1038.125 8.152344 1038.851562 8.84375 1039.542969 C 9.535156 1040.234375 10.261719 1040.890625 11.019531 1041.511719 C 11.773438 1042.132812 12.558594 1042.714844 13.375 1043.257812 C 14.1875 1043.800781 15.027344 1044.304688 15.890625 1044.765625 C 16.753906 1045.226562 17.636719 1045.644531 18.539062 1046.019531 C 19.445312 1046.394531 20.363281 1046.722656 21.300781 1047.007812 C 22.238281 1047.292969 23.1875 1047.53125 24.144531 1047.722656 C 25.105469 1047.910156 26.074219 1048.054688 27.046875 1048.152344 C 28.019531 1048.246094 28.996094 1048.296875 29.976562 1048.296875 C 30.953125 1048.296875 31.929688 1048.246094 32.90625 1048.152344 C 33.878906 1048.054688 34.847656 1047.910156 35.804688 1047.722656 C 36.765625 1047.53125 37.714844 1047.292969 38.652344 1047.007812 C 39.585938 1046.722656 40.507812 1046.394531 41.414062 1046.019531 C 42.316406 1045.644531 43.199219 1045.226562 44.0625 1044.765625 C 44.925781 1044.304688 45.765625 1043.800781 46.578125 1043.257812 C 47.394531 1042.714844 48.179688 1042.132812 48.933594 1041.511719 C 49.691406 1040.890625 50.414062 1040.234375 51.109375 1039.542969 C 51.800781 1038.851562 52.457031 1038.125 53.078125 1037.371094 C 53.699219 1036.613281 54.28125 1035.828125 54.824219 1035.015625 C 55.367188 1034.199219 55.871094 1033.363281 56.332031 1032.5 C 56.792969 1031.636719 57.210938 1030.75 57.585938 1029.847656 C 57.960938 1028.941406 58.289062 1028.023438 58.574219 1027.085938 C 58.859375 1026.148438 59.09375 1025.199219 59.285156 1024.242188 C 59.476562 1023.28125 59.621094 1022.3125 59.714844 1021.339844 C 59.8125 1020.367188 59.859375 1019.390625 59.859375 1018.410156 Z M 59.859375 1018.410156 " fill-opacity="1" fill-rule="nonzero"/></g><path fill="#aed9b3" d="M 207.847656 911.730469 C 207.847656 910.75 207.796875 909.773438 207.703125 908.800781 C 207.605469 907.828125 207.460938 906.859375 207.273438 905.898438 C 207.082031 904.941406 206.84375 903.992188 206.558594 903.054688 C 206.273438 902.117188 205.945312 901.199219 205.570312 900.292969 C 205.195312 899.390625 204.777344 898.503906 204.316406 897.644531 C 203.855469 896.78125 203.351562 895.941406 202.808594 895.128906 C 202.265625 894.3125 201.683594 893.527344 201.0625 892.773438 C 200.441406 892.015625 199.785156 891.289062 199.09375 890.597656 C 198.402344 889.90625 197.675781 889.25 196.917969 888.628906 C 196.164062 888.007812 195.378906 887.425781 194.5625 886.882812 C 193.75 886.339844 192.910156 885.835938 192.046875 885.375 C 191.1875 884.914062 190.300781 884.496094 189.398438 884.121094 C 188.492188 883.746094 187.574219 883.417969 186.636719 883.132812 C 185.699219 882.847656 184.75 882.609375 183.792969 882.421875 C 182.832031 882.230469 181.863281 882.085938 180.890625 881.988281 C 179.917969 881.894531 178.941406 881.847656 177.960938 881.847656 C 176.984375 881.847656 176.007812 881.894531 175.03125 881.988281 C 174.058594 882.085938 173.089844 882.230469 172.132812 882.421875 C 171.171875 882.609375 170.222656 882.847656 169.285156 883.132812 C 168.351562 883.417969 167.429688 883.746094 166.523438 884.121094 C 165.621094 884.496094 164.738281 884.914062 163.875 885.375 C 163.011719 885.835938 162.171875 886.339844 161.359375 886.882812 C 160.546875 887.425781 159.757812 888.007812 159.003906 888.628906 C 158.246094 889.25 157.523438 889.90625 156.832031 890.597656 C 156.136719 891.289062 155.480469 892.015625 154.859375 892.773438 C 154.238281 893.527344 153.65625 894.3125 153.113281 895.128906 C 152.570312 895.941406 152.066406 896.78125 151.605469 897.644531 C 151.144531 898.503906 150.726562 899.390625 150.351562 900.292969 C 149.976562 901.199219 149.648438 902.117188 149.363281 903.054688 C 149.078125 903.992188 148.84375 904.941406 148.652344 905.898438 C 148.460938 906.859375 148.316406 907.828125 148.222656 908.800781 C 148.125 909.773438 148.078125 910.75 148.078125 911.730469 C 148.078125 912.707031 148.125 913.683594 148.222656 914.660156 C 148.316406 915.632812 148.460938 916.601562 148.652344 917.558594 C 148.84375 918.519531 149.078125 919.46875 149.363281 920.40625 C 149.648438 921.339844 149.976562 922.261719 150.351562 923.167969 C 150.726562 924.070312 151.144531 924.953125 151.605469 925.816406 C 152.066406 926.679688 152.570312 927.519531 153.113281 928.332031 C 153.65625 929.148438 154.238281 929.933594 154.859375 930.6875 C 155.480469 931.445312 156.136719 932.167969 156.832031 932.859375 C 157.523438 933.554688 158.246094 934.210938 159.003906 934.832031 C 159.757812 935.453125 160.546875 936.035156 161.359375 936.578125 C 162.171875 937.121094 163.011719 937.625 163.875 938.085938 C 164.738281 938.546875 165.621094 938.964844 166.523438 939.339844 C 167.429688 939.714844 168.351562 940.042969 169.285156 940.328125 C 170.222656 940.613281 171.171875 940.847656 172.132812 941.039062 C 173.089844 941.230469 174.058594 941.375 175.03125 941.46875 C 176.007812 941.566406 176.984375 941.613281 177.960938 941.613281 C 178.941406 941.613281 179.917969 941.566406 180.890625 941.46875 C 181.863281 941.375 182.832031 941.230469 183.792969 941.039062 C 184.75 940.847656 185.699219 940.613281 186.636719 940.328125 C 187.574219 940.042969 188.492188 939.714844 189.398438 939.339844 C 190.300781 938.964844 191.1875 938.546875 192.046875 938.085938 C 192.910156 937.625 193.75 937.121094 194.5625 936.578125 C 195.378906 936.035156 196.164062 935.453125 196.917969 934.832031 C 197.675781 934.210938 198.402344 933.554688 199.09375 932.859375 C 199.785156 932.167969 200.441406 931.445312 201.0625 930.6875 C 201.683594 929.933594 202.265625 929.148438 202.808594 928.332031 C 203.351562 927.519531 203.855469 926.679688 204.316406 925.816406 C 204.777344 924.953125 205.195312 924.070312 205.570312 923.167969 C 205.945312 922.261719 206.273438 921.339844 206.558594 920.40625 C 206.84375 919.46875 207.082031 918.519531 207.273438 917.558594 C 207.460938 916.601562 207.605469 915.632812 207.703125 914.660156 C 207.796875 913.683594 207.847656 912.707031 207.847656 911.730469 Z M 207.847656 911.730469 " fill-opacity="1" fill-rule="nonzero"/><path fill="#aed9b3" d="M 298.289062 881.847656 C 298.289062 880.867188 298.242188 879.890625 298.144531 878.917969 C 298.050781 877.941406 297.90625 876.976562 297.714844 876.015625 C 297.523438 875.054688 297.285156 874.105469 297.003906 873.171875 C 296.71875 872.234375 296.390625 871.3125 296.015625 870.410156 C 295.640625 869.503906 295.222656 868.621094 294.761719 867.757812 C 294.300781 866.894531 293.796875 866.058594 293.253906 865.242188 C 292.710938 864.429688 292.128906 863.644531 291.507812 862.886719 C 290.886719 862.128906 290.230469 861.40625 289.535156 860.714844 C 288.84375 860.023438 288.121094 859.367188 287.363281 858.746094 C 286.605469 858.125 285.820312 857.542969 285.007812 856.996094 C 284.195312 856.453125 283.355469 855.953125 282.492188 855.488281 C 281.628906 855.027344 280.746094 854.609375 279.839844 854.238281 C 278.9375 853.863281 278.015625 853.53125 277.082031 853.25 C 276.144531 852.964844 275.195312 852.726562 274.234375 852.535156 C 273.277344 852.34375 272.308594 852.203125 271.335938 852.105469 C 270.359375 852.007812 269.382812 851.960938 268.40625 851.960938 C 267.425781 851.960938 266.449219 852.007812 265.476562 852.105469 C 264.503906 852.203125 263.535156 852.34375 262.574219 852.535156 C 261.617188 852.726562 260.667969 852.964844 259.730469 853.25 C 258.792969 853.53125 257.875 853.863281 256.96875 854.238281 C 256.066406 854.609375 255.179688 855.027344 254.316406 855.488281 C 253.453125 855.953125 252.617188 856.453125 251.800781 856.996094 C 250.988281 857.542969 250.203125 858.125 249.445312 858.746094 C 248.691406 859.367188 247.964844 860.023438 247.273438 860.714844 C 246.582031 861.40625 245.925781 862.128906 245.304688 862.886719 C 244.683594 863.644531 244.101562 864.429688 243.558594 865.242188 C 243.015625 866.058594 242.511719 866.894531 242.050781 867.757812 C 241.589844 868.621094 241.171875 869.503906 240.796875 870.410156 C 240.421875 871.3125 240.09375 872.234375 239.808594 873.171875 C 239.523438 874.105469 239.285156 875.054688 239.09375 876.015625 C 238.90625 876.976562 238.761719 877.941406 238.664062 878.917969 C 238.570312 879.890625 238.519531 880.867188 238.519531 881.847656 C 238.519531 882.824219 238.570312 883.800781 238.664062 884.773438 C 238.761719 885.75 238.90625 886.714844 239.09375 887.675781 C 239.285156 888.636719 239.523438 889.585938 239.808594 890.519531 C 240.09375 891.457031 240.421875 892.378906 240.796875 893.28125 C 241.171875 894.1875 241.589844 895.070312 242.050781 895.933594 C 242.511719 896.796875 243.015625 897.632812 243.558594 898.449219 C 244.101562 899.261719 244.683594 900.046875 245.304688 900.804688 C 245.925781 901.5625 246.582031 902.285156 247.273438 902.976562 C 247.964844 903.667969 248.691406 904.324219 249.445312 904.945312 C 250.203125 905.566406 250.988281 906.148438 251.800781 906.695312 C 252.617188 907.238281 253.453125 907.738281 254.316406 908.203125 C 255.179688 908.664062 256.066406 909.082031 256.96875 909.457031 C 257.875 909.828125 258.792969 910.160156 259.730469 910.441406 C 260.667969 910.726562 261.617188 910.964844 262.574219 911.15625 C 263.535156 911.347656 264.503906 911.488281 265.476562 911.585938 C 266.449219 911.683594 267.425781 911.730469 268.40625 911.730469 C 269.382812 911.730469 270.359375 911.683594 271.335938 911.585938 C 272.308594 911.488281 273.277344 911.347656 274.234375 911.15625 C 275.195312 910.964844 276.144531 910.726562 277.082031 910.441406 C 278.015625 910.160156 278.9375 909.828125 279.839844 909.457031 C 280.746094 909.082031 281.628906 908.664062 282.492188 908.203125 C 283.355469 907.738281 284.195312 907.238281 285.007812 906.695312 C 285.820312 906.148438 286.605469 905.566406 287.363281 904.945312 C 288.121094 904.324219 288.84375 903.667969 289.535156 902.976562 C 290.230469 902.285156 290.886719 901.5625 291.507812 900.804688 C 292.128906 900.046875 292.710938 899.261719 293.253906 898.449219 C 293.796875 897.632812 294.300781 896.796875 294.761719 895.933594 C 295.222656 895.070312 295.640625 894.1875 296.015625 893.28125 C 296.390625 892.378906 296.71875 891.457031 297.003906 890.519531 C 297.285156 889.585938 297.523438 888.636719 297.714844 887.675781 C 297.90625 886.714844 298.050781 885.75 298.144531 884.773438 C 298.242188 883.800781 298.289062 882.824219 298.289062 881.847656 Z M 298.289062 881.847656 " fill-opacity="1" fill-rule="nonzero"/><path fill="#aed9b3" d="M 439.03125 824.652344 C 439.03125 823.671875 438.984375 822.695312 438.886719 821.722656 C 438.792969 820.746094 438.648438 819.78125 438.457031 818.820312 C 438.265625 817.859375 438.027344 816.914062 437.746094 815.976562 C 437.460938 815.039062 437.132812 814.117188 436.757812 813.214844 C 436.382812 812.308594 435.964844 811.425781 435.503906 810.5625 C 435.042969 809.699219 434.539062 808.863281 433.996094 808.046875 C 433.449219 807.234375 432.867188 806.449219 432.246094 805.691406 C 431.628906 804.9375 430.96875 804.210938 430.277344 803.519531 C 429.585938 802.828125 428.863281 802.171875 428.105469 801.550781 C 427.347656 800.929688 426.5625 800.347656 425.75 799.804688 C 424.9375 799.257812 424.097656 798.757812 423.234375 798.296875 C 422.371094 797.835938 421.488281 797.417969 420.582031 797.042969 C 419.679688 796.667969 418.757812 796.335938 417.820312 796.054688 C 416.886719 795.769531 415.9375 795.53125 414.976562 795.339844 C 414.015625 795.148438 413.050781 795.007812 412.078125 794.910156 C 411.101562 794.816406 410.125 794.765625 409.148438 794.765625 C 408.167969 794.765625 407.191406 794.816406 406.21875 794.910156 C 405.242188 795.007812 404.277344 795.148438 403.316406 795.339844 C 402.355469 795.53125 401.410156 795.769531 400.472656 796.054688 C 399.535156 796.335938 398.613281 796.667969 397.710938 797.042969 C 396.804688 797.417969 395.921875 797.835938 395.058594 798.296875 C 394.195312 798.757812 393.359375 799.257812 392.542969 799.804688 C 391.730469 800.347656 390.945312 800.929688 390.1875 801.550781 C 389.433594 802.171875 388.707031 802.828125 388.015625 803.519531 C 387.324219 804.210938 386.667969 804.9375 386.046875 805.691406 C 385.425781 806.449219 384.84375 807.234375 384.300781 808.046875 C 383.753906 808.863281 383.253906 809.699219 382.792969 810.5625 C 382.332031 811.425781 381.914062 812.308594 381.539062 813.214844 C 381.164062 814.117188 380.832031 815.039062 380.550781 815.976562 C 380.265625 816.914062 380.027344 817.859375 379.835938 818.820312 C 379.644531 819.78125 379.503906 820.746094 379.40625 821.722656 C 379.3125 822.695312 379.261719 823.671875 379.261719 824.652344 C 379.261719 825.628906 379.3125 826.605469 379.40625 827.582031 C 379.503906 828.554688 379.644531 829.519531 379.835938 830.480469 C 380.027344 831.441406 380.265625 832.390625 380.550781 833.324219 C 380.832031 834.261719 381.164062 835.183594 381.539062 836.085938 C 381.914062 836.992188 382.332031 837.875 382.792969 838.738281 C 383.253906 839.601562 383.753906 840.441406 384.300781 841.253906 C 384.84375 842.066406 385.425781 842.851562 386.046875 843.609375 C 386.667969 844.367188 387.324219 845.089844 388.015625 845.78125 C 388.707031 846.472656 389.433594 847.128906 390.1875 847.75 C 390.945312 848.371094 391.730469 848.953125 392.542969 849.5 C 393.359375 850.042969 394.195312 850.546875 395.058594 851.007812 C 395.921875 851.46875 396.804688 851.886719 397.710938 852.261719 C 398.613281 852.636719 399.535156 852.964844 400.472656 853.25 C 401.410156 853.53125 402.355469 853.769531 403.316406 853.960938 C 404.277344 854.152344 405.242188 854.296875 406.21875 854.390625 C 407.191406 854.488281 408.167969 854.535156 409.148438 854.535156 C 410.125 854.535156 411.101562 854.488281 412.078125 854.390625 C 413.050781 854.296875 414.015625 854.152344 414.976562 853.960938 C 415.9375 853.769531 416.886719 853.53125 417.820312 853.25 C 418.757812 852.964844 419.679688 852.636719 420.582031 852.261719 C 421.488281 851.886719 422.371094 851.46875 423.234375 851.007812 C 424.097656 850.546875 424.9375 850.042969 425.75 849.5 C 426.5625 848.953125 427.347656 848.371094 428.105469 847.75 C 428.863281 847.132812 429.585938 846.472656 430.277344 845.78125 C 430.96875 845.089844 431.628906 844.367188 432.246094 843.609375 C 432.867188 842.851562 433.449219 842.066406 433.996094 841.253906 C 434.539062 840.441406 435.042969 839.601562 435.503906 838.738281 C 435.964844 837.875 436.382812 836.992188 436.757812 836.085938 C 437.132812 835.183594 437.460938 834.261719 437.746094 833.324219 C 438.027344 832.390625 438.265625 831.441406 438.457031 830.480469 C 438.648438 829.519531 438.792969 828.554688 438.886719 827.582031 C 438.984375 826.605469 439.03125 825.628906 439.03125 824.652344 Z M 439.03125 824.652344 " fill-opacity="1" fill-rule="nonzero"/><path fill="#aed9b3" d="M 547 857.746094 C 547 856.765625 546.953125 855.789062 546.855469 854.816406 C 546.761719 853.84375 546.617188 852.875 546.425781 851.914062 C 546.234375 850.953125 546 850.007812 545.714844 849.070312 C 545.429688 848.132812 545.101562 847.214844 544.726562 846.308594 C 544.351562 845.40625 543.933594 844.519531 543.472656 843.65625 C 543.011719 842.792969 542.507812 841.957031 541.964844 841.140625 C 541.421875 840.328125 540.839844 839.542969 540.21875 838.785156 C 539.597656 838.03125 538.941406 837.304688 538.25 836.613281 C 537.554688 835.921875 536.832031 835.265625 536.074219 834.644531 C 535.320312 834.023438 534.535156 833.441406 533.71875 832.898438 C 532.90625 832.351562 532.066406 831.851562 531.203125 831.390625 C 530.339844 830.929688 529.457031 830.511719 528.554688 830.136719 C 527.648438 829.761719 526.726562 829.433594 525.792969 829.148438 C 524.855469 828.863281 523.90625 828.625 522.945312 828.433594 C 521.988281 828.242188 521.019531 828.101562 520.046875 828.003906 C 519.070312 827.910156 518.09375 827.859375 517.117188 827.859375 C 516.136719 827.859375 515.160156 827.910156 514.1875 828.003906 C 513.214844 828.101562 512.246094 828.242188 511.285156 828.433594 C 510.328125 828.625 509.378906 828.863281 508.441406 829.148438 C 507.503906 829.433594 506.585938 829.761719 505.679688 830.136719 C 504.777344 830.511719 503.894531 830.929688 503.03125 831.390625 C 502.167969 831.851562 501.328125 832.351562 500.515625 832.898438 C 499.699219 833.441406 498.914062 834.023438 498.160156 834.644531 C 497.402344 835.265625 496.675781 835.921875 495.984375 836.613281 C 495.292969 837.304688 494.636719 838.03125 494.015625 838.785156 C 493.394531 839.542969 492.8125 840.328125 492.269531 841.140625 C 491.726562 841.957031 491.222656 842.792969 490.761719 843.65625 C 490.300781 844.519531 489.882812 845.40625 489.507812 846.308594 C 489.132812 847.214844 488.804688 848.132812 488.519531 849.070312 C 488.234375 850.007812 487.996094 850.953125 487.808594 851.914062 C 487.617188 852.875 487.472656 853.84375 487.375 854.816406 C 487.28125 855.789062 487.234375 856.765625 487.234375 857.746094 C 487.234375 858.722656 487.28125 859.699219 487.375 860.675781 C 487.472656 861.648438 487.617188 862.617188 487.808594 863.574219 C 487.996094 864.535156 488.234375 865.484375 488.519531 866.421875 C 488.804688 867.355469 489.132812 868.277344 489.507812 869.179688 C 489.882812 870.085938 490.300781 870.96875 490.761719 871.832031 C 491.222656 872.695312 491.726562 873.535156 492.269531 874.347656 C 492.8125 875.160156 493.394531 875.945312 494.015625 876.703125 C 494.636719 877.460938 495.292969 878.183594 495.984375 878.875 C 496.675781 879.570312 497.402344 880.226562 498.160156 880.847656 C 498.914062 881.464844 499.699219 882.050781 500.515625 882.59375 C 501.328125 883.136719 502.167969 883.640625 503.03125 884.101562 C 503.894531 884.5625 504.777344 884.980469 505.679688 885.355469 C 506.585938 885.730469 507.503906 886.058594 508.441406 886.34375 C 509.378906 886.625 510.328125 886.863281 511.285156 887.054688 C 512.246094 887.246094 513.214844 887.390625 514.1875 887.484375 C 515.160156 887.582031 516.136719 887.628906 517.117188 887.628906 C 518.09375 887.628906 519.070312 887.582031 520.046875 887.484375 C 521.019531 887.390625 521.988281 887.246094 522.945312 887.054688 C 523.90625 886.863281 524.855469 886.625 525.792969 886.34375 C 526.726562 886.058594 527.648438 885.730469 528.554688 885.355469 C 529.457031 884.980469 530.339844 884.5625 531.203125 884.101562 C 532.066406 883.640625 532.90625 883.136719 533.71875 882.59375 C 534.535156 882.050781 535.320312 881.464844 536.074219 880.847656 C 536.832031 880.226562 537.554688 879.570312 538.25 878.875 C 538.941406 878.183594 539.597656 877.460938 540.21875 876.703125 C 540.839844 875.945312 541.421875 875.160156 541.964844 874.347656 C 542.507812 873.535156 543.011719 872.695312 543.472656 871.832031 C 543.933594 870.96875 544.351562 870.085938 544.726562 869.179688 C 545.101562 868.277344 545.429688 867.355469 545.714844 866.421875 C 546 865.484375 546.234375 864.535156 546.425781 863.574219 C 546.617188 862.617188 546.761719 861.648438 546.855469 860.675781 C 546.953125 859.699219 547 858.722656 547 857.746094 Z M 547 857.746094 " fill-opacity="1" fill-rule="nonzero"/><path fill="#aed9b3" d="M 581.703125 938.777344 C 581.703125 937.796875 581.652344 936.820312 581.558594 935.847656 C 581.460938 934.871094 581.320312 933.90625 581.128906 932.945312 C 580.9375 931.984375 580.699219 931.035156 580.414062 930.101562 C 580.132812 929.164062 579.800781 928.242188 579.425781 927.339844 C 579.054688 926.433594 578.636719 925.550781 578.171875 924.6875 C 577.710938 923.824219 577.210938 922.988281 576.664062 922.171875 C 576.121094 921.359375 575.539062 920.574219 574.917969 919.816406 C 574.296875 919.058594 573.640625 918.335938 572.949219 917.644531 C 572.257812 916.953125 571.53125 916.296875 570.777344 915.675781 C 570.019531 915.054688 569.234375 914.472656 568.421875 913.925781 C 567.605469 913.382812 566.769531 912.882812 565.90625 912.421875 C 565.042969 911.957031 564.160156 911.539062 563.253906 911.167969 C 562.351562 910.792969 561.429688 910.460938 560.492188 910.179688 C 559.554688 909.894531 558.609375 909.65625 557.648438 909.464844 C 556.6875 909.273438 555.722656 909.132812 554.746094 909.035156 C 553.773438 908.9375 552.796875 908.890625 551.816406 908.890625 C 550.839844 908.890625 549.863281 908.9375 548.890625 909.035156 C 547.914062 909.132812 546.949219 909.273438 545.988281 909.464844 C 545.027344 909.65625 544.078125 909.894531 543.144531 910.179688 C 542.207031 910.460938 541.285156 910.792969 540.382812 911.167969 C 539.476562 911.539062 538.59375 911.957031 537.730469 912.421875 C 536.867188 912.882812 536.027344 913.382812 535.214844 913.925781 C 534.402344 914.472656 533.617188 915.054688 532.859375 915.675781 C 532.101562 916.296875 531.378906 916.953125 530.6875 917.644531 C 529.996094 918.335938 529.339844 919.058594 528.71875 919.816406 C 528.097656 920.574219 527.515625 921.359375 526.96875 922.171875 C 526.425781 922.988281 525.921875 923.824219 525.460938 924.6875 C 525 925.550781 524.582031 926.433594 524.207031 927.339844 C 523.832031 928.242188 523.503906 929.164062 523.21875 930.101562 C 522.9375 931.035156 522.699219 931.984375 522.507812 932.945312 C 522.316406 933.90625 522.171875 934.871094 522.078125 935.847656 C 521.980469 936.820312 521.933594 937.796875 521.933594 938.777344 C 521.933594 939.753906 521.980469 940.730469 522.078125 941.703125 C 522.171875 942.679688 522.316406 943.644531 522.507812 944.605469 C 522.699219 945.566406 522.9375 946.515625 523.21875 947.449219 C 523.503906 948.386719 523.832031 949.308594 524.207031 950.210938 C 524.582031 951.117188 525 952 525.460938 952.863281 C 525.921875 953.726562 526.425781 954.5625 526.96875 955.378906 C 527.515625 956.191406 528.097656 956.976562 528.71875 957.734375 C 529.339844 958.492188 529.996094 959.214844 530.6875 959.90625 C 531.378906 960.597656 532.101562 961.253906 532.859375 961.875 C 533.617188 962.496094 534.402344 963.078125 535.214844 963.625 C 536.027344 964.167969 536.867188 964.667969 537.730469 965.132812 C 538.59375 965.59375 539.476562 966.011719 540.382812 966.386719 C 541.285156 966.757812 542.207031 967.089844 543.144531 967.371094 C 544.078125 967.65625 545.027344 967.894531 545.988281 968.085938 C 546.949219 968.277344 547.914062 968.417969 548.890625 968.515625 C 549.863281 968.613281 550.839844 968.660156 551.816406 968.660156 C 552.796875 968.660156 553.773438 968.613281 554.746094 968.515625 C 555.722656 968.417969 556.6875 968.277344 557.648438 968.085938 C 558.609375 967.894531 559.554688 967.65625 560.492188 967.371094 C 561.429688 967.089844 562.351562 966.757812 563.253906 966.386719 C 564.160156 966.011719 565.042969 965.59375 565.90625 965.132812 C 566.769531 964.667969 567.605469 964.167969 568.421875 963.625 C 569.234375 963.078125 570.019531 962.496094 570.777344 961.875 C 571.53125 961.253906 572.257812 960.597656 572.949219 959.90625 C 573.640625 959.214844 574.296875 958.492188 574.917969 957.734375 C 575.539062 956.976562 576.121094 956.191406 576.664062 955.378906 C 577.210938 954.5625 577.710938 953.726562 578.171875 952.863281 C 578.636719 952 579.054688 951.117188 579.425781 950.210938 C 579.800781 949.308594 580.132812 948.386719 580.414062 947.449219 C 580.699219 946.515625 580.9375 945.566406 581.128906 944.605469 C 581.320312 943.644531 581.460938 942.679688 581.558594 941.703125 C 581.652344 940.730469 581.703125 939.753906 581.703125 938.777344 Z M 581.703125 938.777344 " fill-opacity="1" fill-rule="nonzero"/></svg>